<svg width="48" height="48" xmlns="http://www.w3.org/2000/svg">
 <g>
  <title>background</title>
  <rect fill="none" id="canvas_background" height="402" width="582" y="-1" x="-1"/>
 </g>
 <g>
  <title>Layer 1</title>
  <path id="svg_2" fill="#000000" d="m24,8.30664c-8.65332,0 -15.69385,7.04053 -15.69385,15.69385c0,8.65283 7.04053,15.69287 15.69385,15.69287s15.69385,-7.04004 15.69385,-15.69287c0,-8.65332 -7.04053,-15.69385 -15.69385,-15.69385zm7.34717,23.60156l-14.69434,0c-0.19336,0 -0.3501,-0.15625 -0.3501,-0.34961c0,-4.24463 3.45312,-7.69775 7.69727,-7.69775s7.69727,3.45312 7.69727,7.69775c0,0.19336 -0.15674,0.34961 -0.3501,0.34961zm-7.34863,-15.81591c2.13086,0 3.86475,1.73389 3.86475,3.86475s-1.73389,3.86426 -3.86475,3.86426s-3.86475,-1.7334 -3.86475,-3.86426s1.73389,-3.86475 3.86475,-3.86475zm-2.49415,-4.53223c-0.03369,-0.19043 0.09326,-0.37207 0.28369,-0.40576c0.55273,-0.09814 1.10986,-0.16162 1.65674,-0.18896c0.19434,-0.0127 0.35742,0.13916 0.36719,0.33203c0.00977,0.19336 -0.13916,0.35742 -0.33203,0.36719c-0.51758,0.02588 -1.0459,0.08594 -1.56982,0.1792c-0.02051,0.00342 -0.04102,0.00537 -0.06152,0.00537c-0.16651,-0.00001 -0.31397,-0.11915 -0.34425,-0.28907zm-6.30859,2.86279c1.16504,-1.00342 3.01953,-2.33057 5.23877,-2.95752c0.1875,-0.0498 0.38037,0.05566 0.43213,0.2417c0.05225,0.18604 -0.05566,0.37939 -0.2417,0.43213c-2.09619,0.5918 -3.86084,1.85693 -4.97217,2.81396c-0.06641,0.05713 -0.14746,0.08496 -0.22852,0.08496c-0.09814,0 -0.1958,-0.0415 -0.26514,-0.12158c-0.12597,-0.14648 -0.10985,-0.36767 0.03663,-0.49365z"/>
 </g>
</svg>
